<svg width="42" height="42" viewBox="0 0 42 42" fill="none" xmlns="http://www.w3.org/2000/svg">
    <mask id="a" style="mask-type:alpha" maskUnits="userSpaceOnUse" x="0" y="0" width="42" height="42">
        <circle cx="21" cy="21" r="21" fill="#C4C4C4"/>
    </mask>
    <g mask="url(#a)">
        <path d="M42 0H0v42h42V0z" fill="#FFB78E"/>
    </g>
    <g clip-path="url(#b)" fill="#fff">
        <path d="M12.726 19.18a5.314 5.314 0 0 0 3.427.611 5.39 5.39 0 0 0 3.086-1.648 5.648 5.648 0 0 0 1.482-3.231 5.706 5.706 0 0 0-.73-3.493 5.48 5.48 0 0 0-2.64-2.324 5.303 5.303 0 0 0-3.474-.204 5.434 5.434 0 0 0-2.882 2 5.682 5.682 0 0 0-1.112 3.384 5.657 5.657 0 0 0 .76 2.857c.5.865 1.22 1.573 2.083 2.049zM23.279 21.596h-.773v4.958a6.095 6.095 0 0 1-1.427 3.92c-.925-1.082-1.425-2.097-1.425-4.228v-4.65h-9.625v4.958a6.926 6.926 0 0 0 1.063 3.7 6.667 6.667 0 0 0 2.854 2.509 6.458 6.458 0 0 0 3.723.508 6.544 6.544 0 0 0 3.393-1.655 6.542 6.542 0 0 0 3.394 1.658 6.456 6.456 0 0 0 3.724-.508 6.664 6.664 0 0 0 2.854-2.51 6.923 6.923 0 0 0 1.062-3.702v-4.958h-8.817zM32.105 19.18v-5.609a4.993 4.993 0 0 0-1.404-3.482 4.733 4.733 0 0 0-3.391-1.443 4.733 4.733 0 0 0-3.392 1.443 4.993 4.993 0 0 0-1.404 3.482v5.627h9.591v-.017z"/>
    </g>
    <defs>
        <clipPath id="b">
            <path fill="#fff" transform="translate(9.883 8.646)" d="M0 0h22.235v24.706H0z"/>
        </clipPath>
    </defs>
</svg>
