<svg width="35" height="35" viewBox="0 0 35 35" fill="none" xmlns="http://www.w3.org/2000/svg">
    <path d="M10.915 12.417a1 1 0 1 0-1.414 1.415l1.414-1.415zm6.585 7.999-.707.707.707.707.707-.707-.707-.707zm7.999-6.585a1 1 0 0 0-1.415-1.414l1.415 1.415zM18.5 7.292a1 1 0 1 0-2 0h2zm-8.999 6.54 7.292 7.292 1.414-1.414-7.292-7.292-1.414 1.415zm8.706 7.292 7.292-7.292-1.415-1.414-7.291 7.292 1.414 1.414zm.293-.707V7.291h-2v13.125h2z" fill="#353535"/>
    <path d="M7.292 23.334v1.458a2.917 2.917 0 0 0 2.916 2.917h14.584a2.917 2.917 0 0 0 2.916-2.917v-1.458" stroke="#353535" stroke-width="2" stroke-linecap="round" stroke-linejoin="round"/>
</svg>
