<svg width="19" height="18" viewBox="0 0 19 18" fill="none" xmlns="http://www.w3.org/2000/svg">
    <path d="M13.825 3.094a1.098 1.098 0 1 1 0 2.195 1.098 1.098 0 0 1 0-2.195zM9.007 13.652a4.653 4.653 0 1 1-.003-9.305 4.653 4.653 0 0 1 .003 9.305zm0-7.645a2.995 2.995 0 1 0 0 5.989 2.995 2.995 0 0 0 0-5.99z" fill="#FF9A62"/>
    <path d="M12.761-.001H5.253A5.253 5.253 0 0 0 0 5.245v7.51A5.253 5.253 0 0 0 5.247 18h7.508a5.253 5.253 0 0 0 5.247-5.246v-7.51A5.253 5.253 0 0 0 12.761 0zM5.253 16.352a3.604 3.604 0 0 1-3.6-3.598v-7.51a3.602 3.602 0 0 1 3.6-3.594h7.508a3.602 3.602 0 0 1 3.6 3.598v7.506a3.604 3.604 0 0 1-3.6 3.598H5.253z" fill="#FF9A62"/>
</svg>
