<svg width="348" height="145" viewBox="0 0 348 145" fill="none" xmlns="http://www.w3.org/2000/svg">
<path d="M11.2729 142.48C9.36928 140.804 8.41748 138.402 8.41748 135.288C8.41748 132.174 9.36928 129.772 11.2729 128.097C13.1765 126.421 15.8682 125.576 19.378 125.576C22.8729 125.576 25.5349 126.407 27.4385 128.097C29.3421 129.772 30.2939 132.174 30.2939 135.288C30.2939 138.402 29.3421 140.804 27.4534 142.48C25.5647 144.155 22.858 145 19.3929 145C15.9277 145 13.1616 144.17 11.2729 142.48ZM23.8693 141.19C24.9698 139.796 25.52 137.824 25.52 135.288C25.52 132.753 24.9698 130.796 23.8693 129.417C23.3041 128.764 22.6052 128.245 21.8318 127.889C21.0436 127.533 20.1959 127.341 19.3334 127.341C18.4708 127.341 17.6231 127.519 16.8349 127.889C16.0467 128.245 15.3626 128.764 14.7975 129.417C13.697 130.81 13.1467 132.738 13.1467 135.288C13.1467 137.824 13.697 139.811 14.7975 141.19C15.3626 141.842 16.0616 142.361 16.8349 142.717C17.6231 143.073 18.4708 143.266 19.3334 143.266C20.1959 143.266 21.0436 143.088 21.8318 142.717C22.62 142.361 23.319 141.842 23.8693 141.19Z" fill="#FF9A62"/>
<path d="M89.1864 126.185V127.356H88.6511C88.19 127.356 87.729 127.445 87.2977 127.623C87.1044 127.697 86.9111 127.831 86.7623 127.979C86.6136 128.142 86.4946 128.32 86.4352 128.528L81.4977 144.616H77.8541L73.7644 130.025L69.1839 144.616H65.4957L61.0787 129.551C61.0193 129.402 60.93 129.091 60.7664 128.631C60.6921 128.246 60.469 127.89 60.1418 127.653C59.8146 127.415 59.428 127.312 59.0264 127.356H58.3721V126.185H67.2654V127.356H66.6259C65.4957 127.356 64.9454 127.682 64.9454 128.335C64.9454 128.439 64.9603 128.542 64.99 128.646L68.2618 140.835L72.7234 126.2H76.1141L80.5311 141.072L83.8921 128.794C83.9367 128.661 83.9664 128.513 83.9813 128.364C83.9962 128.201 83.9516 128.038 83.8772 127.905C83.8028 127.771 83.6839 127.653 83.5352 127.579C83.1931 127.415 82.8213 127.326 82.4346 127.341H81.7803V126.17L89.1864 126.185Z" fill="#FF9A62"/>
<path d="M140.583 143.415V144.601H129.92V143.415H130.619C131.14 143.445 131.675 143.326 132.151 143.104C132.329 143.015 132.478 142.867 132.582 142.689C132.686 142.511 132.731 142.303 132.731 142.11V131.494C132.805 130.945 132.746 130.396 132.582 129.878C132.404 129.359 132.121 128.884 131.72 128.499C131.333 128.113 130.857 127.816 130.337 127.639C129.816 127.461 129.266 127.401 128.715 127.475C127.764 127.475 126.827 127.742 126.009 128.217C125.191 128.691 124.507 129.388 124.046 130.204C123.466 131.227 123.183 132.398 123.213 133.57V142.125C123.198 142.333 123.258 142.526 123.362 142.703C123.466 142.881 123.614 143.03 123.793 143.119C124.269 143.341 124.789 143.46 125.325 143.43H126.024V144.616H115.375V143.43H116.253C116.818 143.46 117.368 143.341 117.889 143.119C118.082 143.03 118.231 142.881 118.335 142.703C118.439 142.526 118.499 142.318 118.484 142.11V129.462C118.484 128.825 118.142 128.513 117.487 128.513C117.101 128.558 116.729 128.647 116.372 128.78L116.045 127.757L122.083 125.77H123.243V128.869C123.957 127.846 124.953 127.031 126.098 126.512C127.392 125.889 128.805 125.577 130.232 125.592C132.597 125.592 134.397 126.082 135.646 127.06C136.255 127.52 136.731 128.128 137.059 128.81C137.386 129.492 137.534 130.263 137.505 131.019V142.11C137.49 142.318 137.549 142.526 137.653 142.703C137.758 142.881 137.921 143.03 138.1 143.104C138.605 143.341 139.17 143.445 139.735 143.415H140.583V143.415Z" fill="#FF9A62"/>
<path d="M186.046 126.051C186.329 126.184 186.567 126.392 186.73 126.659C186.894 126.926 186.968 127.237 186.968 127.549C186.983 127.801 186.953 128.053 186.879 128.29C186.805 128.527 186.671 128.75 186.507 128.942C186.329 129.106 186.136 129.224 185.912 129.313C185.689 129.387 185.451 129.432 185.213 129.417C184.946 129.432 184.678 129.372 184.425 129.254C184.202 129.12 183.994 128.957 183.816 128.779C183.652 128.587 183.459 128.423 183.25 128.29C183.027 128.171 182.774 128.112 182.507 128.127C181.778 128.157 181.094 128.438 180.559 128.928C179.845 129.536 179.294 130.307 178.938 131.181C178.477 132.249 178.224 133.391 178.194 134.547V142.05C178.179 142.258 178.239 142.465 178.343 142.658C178.447 142.836 178.596 142.999 178.789 143.088C179.294 143.34 179.845 143.459 180.41 143.429H181.198V144.645H170.416V143.385H171.323C171.873 143.414 172.409 143.296 172.9 143.058C173.093 142.969 173.242 142.821 173.346 142.643C173.45 142.465 173.494 142.258 173.494 142.05V129.55C173.509 129.417 173.509 129.283 173.465 129.165C173.42 129.046 173.361 128.928 173.271 128.824C173.182 128.735 173.063 128.661 172.944 128.616C172.825 128.572 172.691 128.557 172.558 128.572C172.156 128.601 171.769 128.705 171.412 128.853L171.13 127.801L177.242 125.769H178.224V129.817C178.596 128.572 179.384 127.474 180.44 126.703C181.421 125.962 182.611 125.562 183.845 125.547C184.574 125.562 185.347 125.725 186.046 126.051Z" fill="#FF9A62"/>
<path d="M217.337 142.14C215.448 140.494 214.496 138.151 214.511 135.096C214.526 132.042 215.463 129.684 217.337 128.053C219.196 126.407 221.872 125.592 225.367 125.592C228.803 125.592 231.48 126.407 233.368 128.053C235.257 129.684 236.194 132.057 236.194 135.096C236.194 138.151 235.257 140.508 233.368 142.14C231.48 143.785 228.818 144.601 225.367 144.601C221.932 144.616 219.225 143.785 217.337 142.14ZM229.844 140.879C230.944 139.53 231.494 137.602 231.494 135.096C231.494 132.605 230.944 130.707 229.844 129.343C229.308 128.676 228.624 128.157 227.851 127.801C227.078 127.445 226.23 127.282 225.382 127.327C224.52 127.282 223.672 127.445 222.884 127.801C222.096 128.157 221.411 128.676 220.861 129.343C219.761 130.693 219.225 132.605 219.225 135.096C219.225 137.587 219.776 139.545 220.861 140.879C221.397 141.546 222.096 142.08 222.884 142.421C223.672 142.777 224.52 142.94 225.382 142.896C226.23 142.925 227.078 142.762 227.851 142.421C228.624 142.08 229.308 141.546 229.844 140.879Z" fill="#FF9A62"/>
<path d="M266.592 142.14C264.703 140.494 263.751 138.151 263.766 135.096C263.766 132.042 264.718 129.684 266.592 128.053C268.481 126.407 271.158 125.592 274.623 125.592C278.088 125.592 280.765 126.407 282.624 128.053C284.483 129.699 285.42 132.057 285.42 135.096C285.42 138.136 284.483 140.494 282.624 142.14C280.735 143.785 278.073 144.601 274.623 144.601C271.172 144.601 268.51 143.785 266.592 142.14ZM279.084 140.879C280.185 139.53 280.735 137.602 280.72 135.096C280.72 132.605 280.17 130.707 279.084 129.343C278.549 128.676 277.865 128.157 277.091 127.801C276.318 127.445 275.47 127.282 274.623 127.327C273.76 127.282 272.912 127.445 272.124 127.801C271.336 128.157 270.652 128.676 270.102 129.343C269.001 130.693 268.466 132.605 268.466 135.096C268.466 137.587 269.016 139.545 270.102 140.879C270.637 141.546 271.336 142.08 272.124 142.421C272.912 142.777 273.76 142.94 274.623 142.896C275.47 142.925 276.318 142.762 277.091 142.421C277.88 142.08 278.564 141.546 279.084 140.879Z" fill="#FF9A62"/>
<path d="M347.346 143.384V144.6H336.608V143.384H337.471C338.021 143.414 338.586 143.295 339.092 143.058C339.285 142.969 339.434 142.821 339.538 142.643C339.642 142.465 339.687 142.258 339.687 142.05V131.596C339.776 130.484 339.434 129.372 338.75 128.497C338.422 128.142 338.021 127.875 337.575 127.697C337.129 127.519 336.653 127.445 336.177 127.459C335.508 127.459 334.853 127.593 334.258 127.875C333.649 128.156 333.128 128.557 332.697 129.061C331.73 130.128 331.239 131.685 331.239 133.702V141.976C331.225 142.183 331.284 142.391 331.388 142.584C331.492 142.762 331.641 142.925 331.834 143.014C332.34 143.266 332.89 143.384 333.455 143.355H333.827V144.571H324.056V143.384H324.502C325.068 143.414 325.618 143.295 326.124 143.058C326.317 142.969 326.466 142.821 326.57 142.643C326.674 142.465 326.718 142.258 326.718 142.05V131.596C326.808 130.484 326.466 129.372 325.781 128.497C325.454 128.142 325.053 127.875 324.607 127.697C324.16 127.519 323.685 127.43 323.209 127.459C322.554 127.459 321.9 127.593 321.305 127.875C320.71 128.156 320.19 128.557 319.758 129.061C318.807 130.128 318.316 131.685 318.316 133.702V141.976C318.301 142.183 318.36 142.391 318.465 142.584C318.569 142.762 318.732 142.925 318.911 143.014C319.416 143.266 319.967 143.384 320.532 143.355H321.305V144.571H310.553V143.384H311.46C312.01 143.414 312.546 143.295 313.036 143.058C313.23 142.969 313.378 142.821 313.482 142.643C313.587 142.465 313.631 142.258 313.631 142.05V129.55C313.646 129.417 313.646 129.283 313.601 129.165C313.557 129.046 313.497 128.927 313.408 128.824C313.319 128.72 313.2 128.661 313.081 128.616C312.962 128.572 312.828 128.557 312.694 128.572C312.308 128.601 311.921 128.705 311.549 128.853L311.252 127.801L317.2 125.769H318.346V128.853C318.97 127.86 319.848 127.044 320.889 126.496C322.064 125.858 323.372 125.547 324.696 125.576C326.168 125.502 327.64 125.843 328.949 126.54C329.99 127.163 330.734 128.156 331.046 129.328C331.581 128.201 332.474 127.267 333.574 126.674C334.824 125.947 336.251 125.576 337.694 125.606C339.91 125.606 341.59 126.095 342.735 127.104C343.3 127.608 343.761 128.231 344.059 128.942C344.356 129.639 344.49 130.395 344.46 131.166V142.035C344.446 142.243 344.505 142.45 344.609 142.643C344.713 142.821 344.877 142.969 345.055 143.073C345.546 143.325 346.081 143.444 346.632 143.414L347.346 143.384Z" fill="#FF9A62"/>
<path d="M305.467 0C282.014 0 262.934 19.2612 262.934 42.941V93.5331H348V42.941C348 19.2612 328.92 0 305.467 0ZM268.927 87.4834V42.941C268.927 22.5974 285.316 6.0497 305.467 6.0497C325.618 6.0497 342.007 22.5974 342.007 42.941V87.4834H268.927Z" fill="#FF9A62"/>
<path d="M185.6 54.937C185.6 63.196 182.7 71.2178 177.406 77.6233C172.126 71.2178 169.211 63.196 169.211 54.937V4.65625H107.479V54.937C107.479 78.1571 126.425 97.0476 149.714 97.0476C159.887 97.0476 169.687 93.3852 177.376 86.7127L177.421 86.7572L177.45 86.7275C185.139 93.3852 194.94 97.0476 205.112 97.0476C228.401 97.0476 247.348 78.1571 247.348 54.937V4.65625H185.6V54.937ZM181.897 82.1606L182.016 82.0271C182.18 81.8344 182.343 81.6416 182.522 81.434C182.685 81.2413 182.834 81.0485 182.983 80.8558L183.25 80.5147C183.399 80.322 183.563 80.1144 183.711 79.9216C183.86 79.714 184.009 79.5064 184.157 79.2988L184.395 78.9726C184.544 78.765 184.693 78.5723 184.827 78.3647C184.961 78.1571 185.094 77.9495 185.228 77.7419L185.511 77.2971C185.63 77.1192 185.749 76.9412 185.853 76.7485C186.002 76.5112 186.135 76.274 186.269 76.0368L186.433 75.7402C186.552 75.5326 186.686 75.3102 186.805 75.1026C186.939 74.8654 187.057 74.6133 187.191 74.3612L187.385 73.9757C187.489 73.7829 187.578 73.5902 187.682 73.3974C187.801 73.1602 187.905 72.9378 188.009 72.7005L188.485 71.6626C188.604 71.3957 188.708 71.1436 188.812 70.8767L189.199 69.8981C189.288 69.646 189.377 69.394 189.467 69.1419L189.839 68.1039C189.928 67.8519 190.002 67.585 190.076 67.3329L190.225 66.8288C190.285 66.6508 190.329 66.4729 190.389 66.295C190.478 65.9984 190.552 65.7019 190.627 65.4053L190.865 64.4415C190.939 64.1449 190.999 63.8484 191.058 63.5518L191.266 62.5732C191.326 62.2618 191.37 61.9504 191.415 61.6391L191.564 60.6901C191.608 60.3935 191.638 60.0822 191.668 59.7708L191.787 58.7773C191.816 58.3918 191.846 58.0211 191.876 57.6356L191.921 56.8497C191.95 56.2121 191.965 55.5597 191.965 54.9221L191.995 11.6846H241.042L241.012 54.9221C241.012 74.643 224.921 90.7013 205.127 90.7013C204.041 90.7013 202.926 90.6569 201.825 90.5531C201.632 90.5382 201.453 90.5086 201.275 90.4789C201.126 90.4493 200.963 90.4344 200.814 90.4196L200.591 90.39C199.922 90.3158 199.237 90.2269 198.583 90.1082C198.345 90.0638 198.122 90.0044 197.899 89.9451L197.022 89.7375C196.486 89.6189 195.936 89.5003 195.415 89.352C195.163 89.2779 194.925 89.2037 194.687 89.1148L193.735 88.8034C193.259 88.6551 192.783 88.5068 192.322 88.3289C192.069 88.2251 191.816 88.1213 191.564 88.0027L190.701 87.632C190.24 87.4392 189.779 87.2465 189.333 87.0241C189.065 86.8906 188.812 86.7423 188.545 86.6089L187.712 86.1492C187.295 85.9268 186.879 85.7044 186.463 85.4523C186.195 85.2892 185.927 85.1113 185.674 84.9334L184.871 84.3996C184.5 84.1475 184.113 83.8954 183.756 83.6285C183.488 83.4209 183.221 83.2134 182.953 82.9909L182.328 82.4868C182.18 82.3978 182.046 82.2792 181.897 82.1606ZM162.935 56.8794L162.98 57.6208C163.01 58.0063 163.025 58.4066 163.069 58.7922C163.084 58.9701 163.099 59.1332 163.129 59.3111L163.188 59.7856C163.218 60.097 163.248 60.3935 163.292 60.7049C163.322 60.8829 163.352 61.0608 163.382 61.2239L163.471 61.728C163.515 62.0098 163.56 62.2915 163.605 62.5732C163.634 62.7511 163.679 62.9291 163.709 63.107L163.813 63.626C163.872 63.8929 163.917 64.1746 163.991 64.4415C164.036 64.6194 164.081 64.8122 164.125 64.9901L164.229 65.4053C164.304 65.7019 164.378 65.9836 164.452 66.2653C164.497 66.4432 164.556 66.636 164.616 66.8139L164.78 67.3626C164.854 67.5998 164.928 67.837 165.003 68.0743C165.062 68.2522 165.122 68.4153 165.181 68.5933L165.389 69.1715C165.479 69.4088 165.553 69.6312 165.642 69.8684C165.716 70.0612 165.791 70.2391 165.865 70.4171L166.073 70.9212C166.163 71.1584 166.267 71.3809 166.371 71.6181C166.46 71.8109 166.549 72.0036 166.639 72.1964L166.832 72.6116C166.936 72.8488 167.055 73.1009 167.174 73.3381C167.263 73.5309 167.367 73.7236 167.471 73.9164L167.635 74.2426C167.769 74.5095 167.903 74.7764 168.051 75.0433C168.155 75.2212 168.26 75.3992 168.364 75.5919L168.602 75.9923C168.735 76.2295 168.869 76.4668 169.018 76.704C169.122 76.8819 169.241 77.0599 169.345 77.2378L169.598 77.6381C169.747 77.8606 169.895 78.0978 170.044 78.3202C170.178 78.513 170.312 78.7057 170.446 78.8985L170.699 79.2544C170.847 79.462 170.996 79.6695 171.145 79.8771L171.814 80.752C171.977 80.9595 172.141 81.182 172.32 81.3896C172.468 81.5823 172.632 81.7751 172.795 81.953L172.929 82.1013C172.795 82.2051 172.662 82.3089 172.543 82.4127L171.903 82.9316C171.635 83.154 171.368 83.3765 171.1 83.5692C170.728 83.8361 170.356 84.0882 169.985 84.3403L169.182 84.8741C168.914 85.052 168.661 85.2299 168.393 85.393C167.977 85.6451 167.561 85.8675 167.129 86.0899L166.311 86.5348C166.059 86.683 165.806 86.8165 165.538 86.9499C165.092 87.1724 164.646 87.3651 164.185 87.543L163.307 87.9286C163.054 88.0472 162.802 88.151 162.549 88.2548C162.088 88.4327 161.612 88.581 161.136 88.7293L160.184 89.0406C159.946 89.1296 159.708 89.2037 159.455 89.2779C158.95 89.4262 158.429 89.53 157.909 89.6486L156.972 89.8562C156.749 89.9155 156.511 89.9748 156.288 90.0193C155.619 90.1379 154.949 90.2269 154.28 90.301L154.057 90.3306C153.908 90.3455 153.745 90.3751 153.596 90.39C153.417 90.4196 153.224 90.4493 153.046 90.4641C151.945 90.5679 150.83 90.6124 149.744 90.6124C129.95 90.6124 113.859 74.5688 113.859 54.8332V11.6994H162.906V54.937C162.876 55.5894 162.906 56.227 162.935 56.8794Z" fill="#FF9A62"/>
<path d="M47.1882 1.03711C21.1626 1.03711 0 22.1517 0 48.0854C0 74.019 21.1626 95.1336 47.1882 95.1336C73.2138 95.1336 94.3764 74.0338 94.3764 48.0854C94.3764 22.1369 73.199 1.03711 47.1882 1.03711ZM88.6359 48.0854C88.6359 70.8755 70.0462 89.4101 47.1882 89.4101C24.3303 89.4101 5.74051 70.8755 5.74051 48.0854C5.74051 25.2952 24.3303 6.7606 47.1882 6.7606C70.0462 6.7606 88.6359 25.31 88.6359 48.0854Z" fill="#FF9A62"/>
</svg>
