<?xml version="1.0" encoding="utf-8"?>
<!-- Generator: Adobe Illustrator 26.0.2, SVG Export Plug-In . SVG Version: 6.00 Build 0)  -->
<svg version="1.1" id="Layer_1" xmlns="http://www.w3.org/2000/svg" xmlns:xlink="http://www.w3.org/1999/xlink" x="0px" y="0px"
	 viewBox="0 0 389 177" style="enable-background:new 0 0 389 177;" xml:space="preserve">
<style type="text/css">
	.st0{fill:#FFFFFF;}
</style>
<path class="st0" d="M161,53.9c-14.8,0-26.8-12-26.8-26.8c0-14.8,12-26.8,26.8-26.8c14.8,0,26.8,12,26.8,26.8
	C187.8,41.8,175.8,53.9,161,53.9z M161,4.8c-12.3,0-22.3,10-22.3,22.3c0,12.3,10,22.3,22.3,22.3c12.3,0,22.3-10,22.3-22.3
	C183.3,14.8,173.3,4.8,161,4.8z"/>
<path class="st0" d="M210.6,118.6c-8,0-15.6-3-21.5-8.4c-5.9,5.4-13.6,8.4-21.5,8.4c-17.8,0-32.3-14.6-32.3-32.6V62.2h46.9v22.3
	c0,4.9,0.6,8.8,1.8,12c1.1,2.8,2.6,5.3,5.2,8.3c4.5-5.2,7-11.9,7-18.8V62.2h46.8V86C242.9,104,228.4,118.6,210.6,118.6z
	 M192.8,107.5c5,4.3,11.3,6.6,17.8,6.6c15.3,0,27.7-12.6,27.7-28.1V66.7h-37.7V86C200.6,93.8,197.9,101.4,192.8,107.5z M139.9,66.7
	V86c0,15.5,12.4,28.1,27.7,28.1c6.5,0,12.8-2.3,17.8-6.6c-2.7-3.2-4.5-6.1-5.7-9.3c-1.4-3.8-2.1-8.1-2.1-13.6V66.7H139.9z"/>
<path class="st0" d="M242.9,50.7H196l0-27c0-13,10.5-23.7,23.4-23.7s23.4,10.6,23.4,23.7L242.9,50.7z M200.6,46.1h37.7l0-22.5
	c0-10.5-8.4-19.1-18.8-19.1s-18.8,8.6-18.8,19.1L200.6,46.1z"/>
<path class="st0" d="M3.3,173.1c-2.2-1.9-3.3-4.7-3.3-8.4s1.1-6.4,3.3-8.4c2.2-1.9,5.3-2.9,9.3-2.9s7.1,1,9.2,2.9
	c2.2,2,3.3,4.7,3.3,8.4s-1.1,6.4-3.3,8.4c-2.2,1.9-5.3,2.9-9.2,2.9C8.6,176,5.4,175,3.3,173.1z M17.7,171.6c1.3-1.6,1.9-3.9,1.9-6.9
	c0-2.9-0.6-5.2-1.9-6.8c-0.6-0.8-1.4-1.4-2.3-1.8c-0.9-0.4-1.9-0.6-2.9-0.6s-2,0.2-2.9,0.6c-0.9,0.4-1.7,1-2.3,1.8
	c-1.3,1.6-1.9,3.9-1.9,6.8c0,3,0.6,5.3,1.9,6.9c0.6,0.8,1.4,1.4,2.3,1.8c0.9,0.4,1.9,0.6,2.9,0.6s2-0.2,2.9-0.6
	C16.3,172.9,17.1,172.3,17.7,171.6z"/>
<path class="st0" d="M92.6,154.1v1.4H92c-0.5,0-1.1,0.1-1.6,0.3c-0.2,0.1-0.4,0.2-0.6,0.4c-0.2,0.2-0.3,0.4-0.4,0.6l-5.7,18.7h-4.2
	l-4.7-17l-5.3,17h-4.2L60.4,158c-0.1-0.2-0.2-0.5-0.4-1.1c-0.1-0.4-0.3-0.9-0.7-1.1c-0.4-0.3-0.8-0.4-1.3-0.3h-0.8v-1.4h10.2v1.4
	h-0.8c-1.3,0-1.9,0.4-1.9,1.1c0,0.1,0,0.2,0.1,0.4l3.8,14.2l5.1-17h3.9l5.1,17.3l3.9-14.3c0.1-0.2,0.1-0.3,0.1-0.5
	c0-0.2,0-0.4-0.1-0.5c-0.1-0.2-0.2-0.3-0.4-0.4c-0.4-0.2-0.8-0.3-1.3-0.3h-0.8v-1.4L92.6,154.1z"/>
<path class="st0" d="M151.5,174.1v1.4h-12.2v-1.4h0.8c0.6,0,1.2-0.1,1.8-0.4c0.2-0.1,0.4-0.3,0.5-0.5c0.1-0.2,0.2-0.4,0.2-0.7v-12.4
	c0.1-0.6,0-1.3-0.2-1.9c-0.2-0.6-0.5-1.2-1-1.6c-0.4-0.4-1-0.8-1.6-1c-0.6-0.2-1.2-0.3-1.9-0.2c-1.1,0-2.2,0.3-3.1,0.9
	c-0.9,0.6-1.7,1.4-2.3,2.3c-0.7,1.2-1,2.6-1,3.9v10c0,0.2,0.1,0.5,0.2,0.7c0.1,0.2,0.3,0.4,0.5,0.5c0.5,0.3,1.1,0.4,1.8,0.4h0.8v1.4
	h-12.2v-1.4h1c0.6,0,1.3-0.1,1.9-0.4c0.2-0.1,0.4-0.3,0.5-0.5c0.1-0.2,0.2-0.4,0.2-0.7v-14.7c0-0.7-0.4-1.1-1.1-1.1
	c-0.4,0.1-0.9,0.2-1.3,0.3l-0.4-1.2l6.9-2.3h1.3v3.6c0.8-1.2,2-2.1,3.3-2.7c1.5-0.7,3.1-1.1,4.7-1.1c2.7,0,4.8,0.6,6.2,1.7
	c0.7,0.5,1.2,1.2,1.6,2c0.4,0.8,0.5,1.7,0.5,2.6v12.9c0,0.2,0.1,0.5,0.2,0.7c0.1,0.2,0.3,0.4,0.5,0.5c0.6,0.3,1.2,0.4,1.9,0.4H151.5
	L151.5,174.1z"/>
<path class="st0" d="M203.6,153.9c0.3,0.2,0.6,0.4,0.8,0.7c0.2,0.3,0.3,0.7,0.3,1c0,0.3,0,0.6-0.1,0.9c-0.1,0.3-0.2,0.5-0.4,0.8
	c-0.2,0.2-0.4,0.3-0.7,0.4c-0.3,0.1-0.5,0.1-0.8,0.1c-0.3,0-0.6-0.1-0.9-0.2c-0.3-0.2-0.5-0.3-0.7-0.6c-0.2-0.2-0.4-0.4-0.6-0.6
	c-0.3-0.1-0.5-0.2-0.9-0.2c-0.8,0-1.6,0.4-2.2,0.9c-0.8,0.7-1.4,1.6-1.9,2.6c-0.5,1.2-0.8,2.6-0.9,3.9v8.7c0,0.2,0.1,0.5,0.2,0.7
	c0.1,0.2,0.3,0.4,0.5,0.5c0.6,0.3,1.2,0.4,1.9,0.4h0.9v1.4h-12.4v-1.4h1c0.6,0,1.2-0.1,1.8-0.4c0.2-0.1,0.4-0.3,0.5-0.5
	c0.1-0.2,0.2-0.4,0.2-0.7v-14.5c0-0.2,0-0.3,0-0.4c-0.1-0.1-0.1-0.3-0.2-0.4c-0.1-0.1-0.2-0.2-0.4-0.2c-0.1-0.1-0.3-0.1-0.4-0.1
	c-0.5,0-0.9,0.2-1.3,0.3l-0.3-1.2l7-2.4h1.1v4.7c0.4-1.4,1.3-2.7,2.5-3.6c1.1-0.9,2.5-1.3,3.9-1.3
	C202,153.4,202.8,153.6,203.6,153.9z"/>
<path class="st0" d="M239.5,172.7c-2.2-1.9-3.3-4.6-3.2-8.2c0-3.6,1.1-6.3,3.2-8.2c2.1-1.9,5.2-2.9,9.2-2.9c3.9,0,7,0.9,9.2,2.9
	c2.2,1.9,3.2,4.7,3.2,8.2c0,3.5-1.1,6.3-3.2,8.2c-2.2,1.9-5.2,2.9-9.2,2.9C244.8,175.5,241.7,174.6,239.5,172.7z M253.9,171.2
	c1.3-1.6,1.9-3.8,1.9-6.7c0-2.9-0.6-5.1-1.9-6.7c-0.6-0.8-1.4-1.4-2.3-1.8c-0.9-0.4-1.9-0.6-2.8-0.6c-1-0.1-2,0.1-2.9,0.6
	c-0.9,0.4-1.7,1-2.3,1.8c-1.3,1.6-1.9,3.8-1.9,6.7c0,2.9,0.6,5.2,1.9,6.7c0.6,0.8,1.4,1.4,2.3,1.8c0.9,0.4,1.9,0.6,2.9,0.6
	c1,0,1.9-0.2,2.8-0.6C252.5,172.6,253.2,172,253.9,171.2z"/>
<path class="st0" d="M296,172.7c-2.2-1.9-3.3-4.6-3.2-8.2c0-3.6,1.1-6.3,3.2-8.2c2.2-1.9,5.2-2.9,9.2-2.9c4,0,7,0.9,9.2,2.9
	c2.1,1.9,3.2,4.7,3.2,8.2c0,3.5-1.1,6.3-3.2,8.2c-2.2,1.9-5.2,2.9-9.2,2.9C301.3,175.5,298.2,174.6,296,172.7z M310.3,171.2
	c1.3-1.6,1.9-3.8,1.9-6.7c0-2.9-0.6-5.1-1.9-6.7c-0.6-0.8-1.4-1.4-2.3-1.8c-0.9-0.4-1.9-0.6-2.8-0.6c-1-0.1-2,0.1-2.9,0.6
	c-0.9,0.4-1.7,1-2.3,1.8c-1.3,1.6-1.9,3.8-1.9,6.7c0,2.9,0.6,5.2,1.9,6.7c0.6,0.8,1.4,1.4,2.3,1.8c0.9,0.4,1.9,0.6,2.9,0.6
	c1,0,1.9-0.2,2.8-0.6C308.9,172.6,309.7,172,310.3,171.2z"/>
<path class="st0" d="M388.6,174.1v1.4h-12.3v-1.4h1c0.6,0,1.3-0.1,1.9-0.4c0.2-0.1,0.4-0.3,0.5-0.5c0.1-0.2,0.2-0.4,0.2-0.7v-12.2
	c0.1-1.3-0.3-2.6-1.1-3.6c-0.4-0.4-0.8-0.7-1.3-0.9c-0.5-0.2-1.1-0.3-1.6-0.3c-0.8,0-1.5,0.2-2.2,0.5c-0.7,0.3-1.3,0.8-1.8,1.4
	c-1.1,1.2-1.7,3.1-1.7,5.4v9.6c0,0.2,0.1,0.5,0.2,0.7c0.1,0.2,0.3,0.4,0.5,0.5c0.6,0.3,1.2,0.4,1.9,0.4h0.4v1.4h-11.2v-1.4h0.5
	c0.6,0,1.3-0.1,1.9-0.4c0.2-0.1,0.4-0.3,0.5-0.5s0.2-0.4,0.2-0.7v-12.2c0.1-1.3-0.3-2.6-1.1-3.6c-0.4-0.4-0.8-0.7-1.3-0.9
	c-0.5-0.2-1.1-0.3-1.6-0.3c-0.8,0-1.5,0.2-2.2,0.5c-0.7,0.3-1.3,0.8-1.8,1.4c-1.1,1.2-1.7,3.1-1.7,5.4v9.6c0,0.2,0.1,0.5,0.2,0.7
	c0.1,0.2,0.3,0.4,0.5,0.5c0.6,0.3,1.2,0.4,1.9,0.4h0.9v1.4h-12.3v-1.4h1c0.6,0,1.2-0.1,1.8-0.4c0.2-0.1,0.4-0.3,0.5-0.5
	s0.2-0.4,0.2-0.7V158c0-0.2,0-0.3,0-0.4c-0.1-0.1-0.1-0.3-0.2-0.4c-0.1-0.1-0.2-0.2-0.4-0.2c-0.1-0.1-0.3-0.1-0.4-0.1
	c-0.4,0-0.9,0.2-1.3,0.3l-0.3-1.2l6.8-2.4h1.3v3.6c0.7-1.2,1.7-2.1,2.9-2.7c1.3-0.7,2.8-1.1,4.4-1.1c1.7-0.1,3.4,0.3,4.9,1.1
	c1.2,0.7,2,1.9,2.4,3.2c0.6-1.3,1.6-2.4,2.9-3.1c1.4-0.8,3.1-1.3,4.7-1.2c2.5,0,4.5,0.6,5.8,1.7c0.6,0.6,1.2,1.3,1.5,2.1
	c0.3,0.8,0.5,1.7,0.5,2.6v12.6c0,0.2,0.1,0.5,0.2,0.7c0.1,0.2,0.3,0.4,0.5,0.5c0.6,0.3,1.2,0.4,1.8,0.4H388.6z"/>
</svg>
