<svg width="348" height="98" viewBox="0 0 348 98" fill="none" xmlns="http://www.w3.org/2000/svg">
<path d="M305.467 0C282.014 0 262.934 19.2612 262.934 42.941V93.5331H348V42.941C348 19.2612 328.92 0 305.467 0ZM268.927 87.4834V42.941C268.927 22.5974 285.316 6.0497 305.467 6.0497C325.618 6.0497 342.007 22.5974 342.007 42.941V87.4834H268.927Z" fill="#FF9A62"/>
<path d="M185.6 54.937C185.6 63.196 182.7 71.2178 177.406 77.6233C172.126 71.2178 169.211 63.196 169.211 54.937V4.65625H107.479V54.937C107.479 78.1571 126.425 97.0476 149.714 97.0476C159.887 97.0476 169.687 93.3852 177.376 86.7127L177.421 86.7572L177.45 86.7275C185.139 93.3852 194.94 97.0476 205.112 97.0476C228.401 97.0476 247.348 78.1571 247.348 54.937V4.65625H185.6V54.937ZM181.897 82.1606L182.016 82.0271C182.18 81.8344 182.343 81.6416 182.522 81.434C182.685 81.2413 182.834 81.0485 182.983 80.8558L183.25 80.5147C183.399 80.322 183.563 80.1144 183.711 79.9216C183.86 79.714 184.009 79.5064 184.157 79.2988L184.395 78.9726C184.544 78.765 184.693 78.5723 184.827 78.3647C184.961 78.1571 185.094 77.9495 185.228 77.7419L185.511 77.2971C185.63 77.1192 185.749 76.9412 185.853 76.7485C186.002 76.5112 186.135 76.274 186.269 76.0368L186.433 75.7402C186.552 75.5326 186.686 75.3102 186.805 75.1026C186.939 74.8654 187.057 74.6133 187.191 74.3612L187.385 73.9757C187.489 73.7829 187.578 73.5902 187.682 73.3974C187.801 73.1602 187.905 72.9378 188.009 72.7005L188.485 71.6626C188.604 71.3957 188.708 71.1436 188.812 70.8767L189.199 69.8981C189.288 69.646 189.377 69.394 189.467 69.1419L189.839 68.1039C189.928 67.8519 190.002 67.585 190.076 67.3329L190.225 66.8288C190.285 66.6508 190.329 66.4729 190.389 66.295C190.478 65.9984 190.552 65.7019 190.627 65.4053L190.865 64.4415C190.939 64.1449 190.999 63.8484 191.058 63.5518L191.266 62.5732C191.326 62.2618 191.37 61.9504 191.415 61.6391L191.564 60.6901C191.608 60.3935 191.638 60.0822 191.668 59.7708L191.787 58.7773C191.816 58.3918 191.846 58.0211 191.876 57.6356L191.921 56.8497C191.95 56.2121 191.965 55.5597 191.965 54.9221L191.995 11.6846H241.042L241.012 54.9221C241.012 74.643 224.921 90.7013 205.127 90.7013C204.041 90.7013 202.926 90.6569 201.825 90.5531C201.632 90.5382 201.453 90.5086 201.275 90.4789C201.126 90.4493 200.963 90.4344 200.814 90.4196L200.591 90.39C199.922 90.3158 199.237 90.2269 198.583 90.1082C198.345 90.0638 198.122 90.0044 197.899 89.9451L197.022 89.7375C196.486 89.6189 195.936 89.5003 195.415 89.352C195.163 89.2779 194.925 89.2037 194.687 89.1148L193.735 88.8034C193.259 88.6551 192.783 88.5068 192.322 88.3289C192.069 88.2251 191.816 88.1213 191.564 88.0027L190.701 87.632C190.24 87.4392 189.779 87.2465 189.333 87.0241C189.065 86.8906 188.812 86.7423 188.545 86.6089L187.712 86.1492C187.295 85.9268 186.879 85.7044 186.463 85.4523C186.195 85.2892 185.927 85.1113 185.674 84.9334L184.871 84.3996C184.5 84.1475 184.113 83.8954 183.756 83.6285C183.488 83.4209 183.221 83.2134 182.953 82.9909L182.328 82.4868C182.18 82.3978 182.046 82.2792 181.897 82.1606ZM162.935 56.8794L162.98 57.6208C163.01 58.0063 163.025 58.4066 163.069 58.7922C163.084 58.9701 163.099 59.1332 163.129 59.3111L163.188 59.7856C163.218 60.097 163.248 60.3935 163.292 60.7049C163.322 60.8829 163.352 61.0608 163.382 61.2239L163.471 61.728C163.515 62.0098 163.56 62.2915 163.605 62.5732C163.634 62.7511 163.679 62.9291 163.709 63.107L163.813 63.626C163.872 63.8929 163.917 64.1746 163.991 64.4415C164.036 64.6194 164.081 64.8122 164.125 64.9901L164.229 65.4053C164.304 65.7019 164.378 65.9836 164.452 66.2653C164.497 66.4432 164.556 66.636 164.616 66.8139L164.78 67.3626C164.854 67.5998 164.928 67.837 165.003 68.0743C165.062 68.2522 165.122 68.4153 165.181 68.5933L165.389 69.1715C165.479 69.4088 165.553 69.6312 165.642 69.8684C165.716 70.0612 165.791 70.2391 165.865 70.4171L166.073 70.9212C166.163 71.1584 166.267 71.3809 166.371 71.6181C166.46 71.8109 166.549 72.0036 166.639 72.1964L166.832 72.6116C166.936 72.8488 167.055 73.1009 167.174 73.3381C167.263 73.5309 167.367 73.7236 167.471 73.9164L167.635 74.2426C167.769 74.5095 167.903 74.7764 168.051 75.0433C168.155 75.2212 168.26 75.3992 168.364 75.5919L168.602 75.9923C168.735 76.2295 168.869 76.4668 169.018 76.704C169.122 76.8819 169.241 77.0599 169.345 77.2378L169.598 77.6381C169.747 77.8606 169.895 78.0978 170.044 78.3202C170.178 78.513 170.312 78.7057 170.446 78.8985L170.699 79.2544C170.847 79.462 170.996 79.6695 171.145 79.8771L171.814 80.752C171.977 80.9595 172.141 81.182 172.32 81.3896C172.468 81.5823 172.632 81.7751 172.795 81.953L172.929 82.1013C172.795 82.2051 172.662 82.3089 172.543 82.4127L171.903 82.9316C171.635 83.154 171.368 83.3765 171.1 83.5692C170.728 83.8361 170.356 84.0882 169.985 84.3403L169.182 84.8741C168.914 85.052 168.661 85.2299 168.393 85.393C167.977 85.6451 167.561 85.8675 167.129 86.0899L166.311 86.5348C166.059 86.683 165.806 86.8165 165.538 86.9499C165.092 87.1724 164.646 87.3651 164.185 87.543L163.307 87.9286C163.054 88.0472 162.802 88.151 162.549 88.2548C162.088 88.4327 161.612 88.581 161.136 88.7293L160.184 89.0406C159.946 89.1296 159.708 89.2037 159.455 89.2779C158.95 89.4262 158.429 89.53 157.909 89.6486L156.972 89.8562C156.749 89.9155 156.511 89.9748 156.288 90.0193C155.619 90.1379 154.949 90.2269 154.28 90.301L154.057 90.3306C153.908 90.3455 153.745 90.3751 153.596 90.39C153.417 90.4196 153.224 90.4493 153.046 90.4641C151.945 90.5679 150.83 90.6124 149.744 90.6124C129.95 90.6124 113.859 74.5688 113.859 54.8332V11.6994H162.906V54.937C162.876 55.5894 162.906 56.227 162.935 56.8794Z" fill="#FF9A62"/>
<path d="M47.1882 1.03711C21.1626 1.03711 0 22.1517 0 48.0854C0 74.019 21.1626 95.1336 47.1882 95.1336C73.2138 95.1336 94.3764 74.0338 94.3764 48.0854C94.3764 22.1369 73.199 1.03711 47.1882 1.03711ZM88.6359 48.0854C88.6359 70.8755 70.0462 89.4101 47.1882 89.4101C24.3303 89.4101 5.74051 70.8755 5.74051 48.0854C5.74051 25.2952 24.3303 6.7606 47.1882 6.7606C70.0462 6.7606 88.6359 25.31 88.6359 48.0854Z" fill="#FF9A62"/>
</svg>
