<svg width="170" height="78" viewBox="0 0 170 78" fill="none" xmlns="http://www.w3.org/2000/svg">
    <path d="M65.394 21.26a10.475 10.475 0 0 0 5.06 1.303c1.832 0 3.553-.475 5.051-1.302h-10.11zm0 0a10.785 10.785 0 0 1-5.546-9.435c0-5.935 4.763-10.737 10.6-10.737 5.835 0 10.599 4.81 10.599 10.737 0 4.07-2.246 7.614-5.541 9.436H65.394zM87.417 28.21h1v-.007h16.842v9.417c0 7.332-5.896 13.281-13.113 13.281a12.967 12.967 0 0 1-8.748-3.4l-.426-.388.513-.6a13.663 13.663 0 0 0 3.283-8.886V28.211h.649zm-27.227-.007H78.69V36.978c0 2.316.276 4.096.842 5.618.57 1.528 1.408 2.733 2.438 3.921l.513.592-.43.392a12.967 12.967 0 0 1-8.748 3.4c-7.217 0-13.114-5.95-13.114-13.281v-9.417zM105.229 21.14v.037H86.783V10.349C86.783 5.183 90.934 1 96.01 1c5.076 0 9.227 4.183 9.227 9.349v10.79h-.008z" stroke="#FF9A62" stroke-width="2"/>
    <path d="M1.432 75.718C.477 74.865 0 73.642 0 72.058c0-1.586.477-2.809 1.432-3.662.955-.853 2.305-1.283 4.066-1.283 1.76 0 3.088.423 4.043 1.284.954.852 1.432 2.075 1.432 3.66s-.478 2.808-1.425 3.661c-.947.853-2.305 1.283-4.043 1.283-1.745.008-3.125-.422-4.073-1.283zm6.318-.649c.552-.71.828-1.713.828-3.004 0-1.29-.276-2.287-.828-2.99a3.005 3.005 0 0 0-2.275-1.057c-.432.001-.858.092-1.253.28a2.96 2.96 0 0 0-1.022.778c-.552.71-.828 1.69-.828 2.989 0 1.298.276 2.302.828 3.004a3.006 3.006 0 0 0 2.275 1.057c.433 0 .858-.09 1.253-.28a3.055 3.055 0 0 0 1.022-.777zM40.512 67.42v.596h-.268c-.232 0-.463.045-.68.136a.805.805 0 0 0-.268.18.708.708 0 0 0-.164.28l-2.484 8.182h-1.827l-2.052-7.427-2.297 7.427h-1.85l-2.216-7.669c-.03-.075-.074-.234-.156-.468a.81.81 0 0 0-.314-.498.783.783 0 0 0-.559-.15h-.328v-.597h4.46v.596h-.328c-.567 0-.843.166-.843.498 0 .053.008.106.023.159L30 74.869l2.239-7.45h1.7l2.216 7.571 1.686-6.25c.022-.068.037-.143.044-.219a.417.417 0 0 0-.223-.4 1.158 1.158 0 0 0-.552-.12h-.328v-.597l3.73.015zM66.284 76.19v.604h-5.348v-.603h.35a1.6 1.6 0 0 0 .769-.159.532.532 0 0 0 .216-.211.596.596 0 0 0 .075-.295v-5.404c.037-.28.007-.559-.075-.823a1.815 1.815 0 0 0-1.126-1.14 1.747 1.747 0 0 0-.813-.083 2.71 2.71 0 0 0-2.342 1.389 3.35 3.35 0 0 0-.418 1.713v4.356a.51.51 0 0 0 .074.294c.053.09.127.166.217.212.238.113.5.173.768.158h.35v.604h-5.34v-.604h.44c.283.015.56-.045.82-.158a.508.508 0 0 0 .224-.212.535.535 0 0 0 .075-.302v-6.438c0-.325-.172-.483-.5-.483-.194.022-.38.067-.56.135l-.164-.52 3.029-1.012h.582v1.578a3.53 3.53 0 0 1 1.432-1.2 4.61 4.61 0 0 1 2.074-.469c1.186 0 2.088.25 2.715.748a2.415 2.415 0 0 1 .932 2.015v5.646a.536.536 0 0 0 .075.302c.052.09.134.166.224.204.253.12.537.174.82.159h.425zM89.088 67.351a.804.804 0 0 1 .343.31c.082.135.12.294.12.452a.976.976 0 0 1-.231.71.956.956 0 0 1-.3.189.922.922 0 0 1-.35.052.812.812 0 0 1-.395-.083 1.61 1.61 0 0 1-.306-.241 1.271 1.271 0 0 0-.283-.25.697.697 0 0 0-.373-.082 1.523 1.523 0 0 0-.978.407c-.358.31-.634.702-.813 1.148a4.678 4.678 0 0 0-.373 1.713v3.82a.576.576 0 0 0 .299.528 1.6 1.6 0 0 0 .813.174h.395v.619h-5.408v-.62h.455a1.59 1.59 0 0 0 .79-.166.508.508 0 0 0 .225-.21.604.604 0 0 0 .074-.303v-6.363a.432.432 0 0 0-.015-.196.573.573 0 0 0-.097-.174.473.473 0 0 0-.164-.105c-.06-.023-.127-.03-.194-.023a1.836 1.836 0 0 0-.574.143l-.142-.536 3.066-1.034h.492v2.06a3.057 3.057 0 0 1 1.112-1.584 2.856 2.856 0 0 1 1.708-.589c.373-.015.753.068 1.104.234zM104.789 75.541c-.947-.838-1.424-2.03-1.417-3.585 0-1.555.478-2.755 1.417-3.586.933-.838 2.276-1.253 4.028-1.253 1.724 0 3.066.415 4.014 1.253.947.83 1.417 2.038 1.417 3.586 0 1.547-.47 2.755-1.417 3.585-.948.838-2.283 1.253-4.014 1.253-1.73 0-3.08-.415-4.028-1.253zm6.274-.641c.552-.687.828-1.669.828-2.944 0-1.269-.276-2.235-.828-2.93a2.755 2.755 0 0 0-1-.784 2.6 2.6 0 0 0-1.238-.242 2.657 2.657 0 0 0-1.253.242 2.797 2.797 0 0 0-1.015.785c-.552.687-.82 1.66-.82 2.929 0 1.268.276 2.264.82 2.944.269.34.619.61 1.015.784.395.182.82.265 1.253.242.425.015.85-.068 1.238-.242a2.678 2.678 0 0 0 1-.784zM129.496 75.541c-.948-.838-1.425-2.03-1.418-3.585 0-1.555.478-2.755 1.418-3.586.947-.838 2.289-1.253 4.028-1.253 1.738 0 3.08.415 4.013 1.253.932.838 1.402 2.038 1.402 3.586 0 1.547-.47 2.747-1.402 3.585-.948.838-2.283 1.253-4.013 1.253-1.724.008-3.066-.415-4.028-1.253zm6.265-.641c.552-.687.828-1.669.821-2.944 0-1.269-.276-2.235-.821-2.93a2.743 2.743 0 0 0-.999-.784 2.6 2.6 0 0 0-1.238-.242 2.664 2.664 0 0 0-1.254.242 2.802 2.802 0 0 0-1.014.785c-.552.687-.821 1.66-.821 2.929 0 1.268.276 2.264.821 2.944.268.34.619.61 1.014.784.396.182.821.265 1.254.242.425.015.85-.068 1.238-.242.388-.173.731-.445.999-.784zM170 76.183v.62h-5.385v-.62h.432c.276.015.56-.045.814-.166a.505.505 0 0 0 .223-.211.596.596 0 0 0 .075-.302v-5.322a2.3 2.3 0 0 0-.47-1.577 1.604 1.604 0 0 0-.589-.408 1.723 1.723 0 0 0-.702-.12c-.335 0-.663.067-.962.21a2.28 2.28 0 0 0-.783.605c-.485.543-.731 1.336-.731 2.362v4.212a.574.574 0 0 0 .075.31c.052.09.126.173.223.219.254.128.53.188.813.173h.187v.62h-4.901v-.612h.224c.283.015.559-.046.813-.166a.513.513 0 0 0 .224-.212.605.605 0 0 0 .074-.302v-5.321a2.299 2.299 0 0 0-.47-1.578 1.594 1.594 0 0 0-.589-.407 1.6 1.6 0 0 0-.701-.121c-.328 0-.657.068-.955.211a2.343 2.343 0 0 0-.776.604c-.477.544-.723 1.336-.723 2.363v4.212a.572.572 0 0 0 .298.528c.254.128.53.189.813.174h.388v.619h-5.393v-.612h.455c.276.015.544-.045.791-.166a.505.505 0 0 0 .223-.211.596.596 0 0 0 .075-.302v-6.363a.43.43 0 0 0-.015-.197.559.559 0 0 0-.097-.173.473.473 0 0 0-.164-.106.418.418 0 0 0-.194-.023 1.939 1.939 0 0 0-.574.144l-.15-.536 2.984-1.034h.575v1.57c.313-.506.753-.921 1.275-1.2a3.774 3.774 0 0 1 1.91-.468 4.058 4.058 0 0 1 2.133.49 2.35 2.35 0 0 1 1.052 1.42 2.99 2.99 0 0 1 1.268-1.352 3.909 3.909 0 0 1 2.066-.543c1.112 0 1.955.249 2.529.762.284.257.515.574.664.936.149.355.216.74.201 1.132v5.533a.583.583 0 0 0 .075.31c.052.09.134.166.224.219.246.128.514.188.79.173H170z" fill="#FF9A62"/>
</svg>
